<svg width="119" height="88" viewBox="0 0 119 88" fill="none" xmlns="http://www.w3.org/2000/svg">
<ellipse cx="9.87083" cy="29.5394" rx="9.87083" ry="9.02155" fill="#55BE81"/>
<ellipse cx="15.0206" cy="38.1688" rx="5.57917" ry="5.09914" fill="#72D39A"/>
<path d="M28.335 51.7213C27.575 51.7213 26.935 51.5013 26.415 51.0613C25.895 50.6213 25.635 50.0613 25.635 49.3813V35.7613C25.635 35.1213 25.875 34.5813 26.355 34.1413C26.875 33.6613 27.535 33.4213 28.335 33.4213C29.135 33.4213 29.755 33.6613 30.195 34.1413C30.675 34.5813 30.915 35.1413 30.915 35.8213V49.3213C30.915 50.0013 30.655 50.5813 30.135 51.0613C29.655 51.5013 29.055 51.7213 28.335 51.7213ZM28.335 30.4213C27.495 30.4213 26.775 30.1613 26.175 29.6413C25.575 29.0813 25.275 28.3813 25.275 27.5413C25.275 26.7813 25.575 26.1213 26.175 25.5613C26.775 25.0013 27.495 24.7213 28.335 24.7213C29.135 24.7213 29.815 25.0013 30.375 25.5613C30.975 26.1213 31.275 26.7813 31.275 27.5413C31.275 28.3813 30.975 29.0813 30.375 29.6413C29.815 30.1613 29.135 30.4213 28.335 30.4213ZM40.1504 51.1213C38.9104 51.1213 37.9104 50.7813 37.1504 50.1013C36.4304 49.3813 36.0704 48.4413 36.0704 47.2813V30.5413C36.0704 29.3813 36.4104 28.4813 37.0904 27.8413C37.7704 27.1613 38.6704 26.8213 39.7904 26.8213H45.2504C47.8904 26.8213 50.1304 27.3613 51.9704 28.4413C53.8104 29.4813 55.2104 30.9213 56.1704 32.7613C57.1704 34.5613 57.6704 36.6213 57.6704 38.9413C57.6704 41.3413 57.1704 43.4613 56.1704 45.3013C55.1704 47.1413 53.8104 48.5813 52.0904 49.6213C50.3704 50.6213 48.4504 51.1213 46.3304 51.1213H40.1504ZM42.9704 46.3213H45.3104C47.5904 46.3213 49.3304 45.6813 50.5304 44.4013C51.7304 43.0813 52.3104 41.2613 52.2704 38.9413C52.2304 36.5413 51.6104 34.7213 50.4104 33.4813C49.2104 32.2413 47.4904 31.6213 45.2504 31.6213H42.9704C41.9704 31.6213 41.4704 32.1213 41.4704 33.1213V44.8213C41.4704 45.8213 41.9704 46.3213 42.9704 46.3213ZM64.2516 51.5413C63.4916 51.5413 62.8516 51.3213 62.3316 50.8813C61.8116 50.4413 61.5516 49.8813 61.5516 49.2013V35.7613C61.5516 35.1213 61.7916 34.5813 62.2716 34.1413C62.7916 33.6613 63.4516 33.4213 64.2516 33.4213C64.9716 33.4213 65.5516 33.6413 65.9916 34.0813C66.4716 34.4813 66.7516 34.9813 66.8316 35.5813C67.2716 34.9013 67.8716 34.3213 68.6316 33.8413C69.3916 33.3613 70.1916 33.1213 71.0316 33.1213C71.5516 33.1213 72.0516 33.1813 72.5316 33.3013C73.0916 33.4613 73.5516 33.7813 73.9116 34.2613C74.2716 34.7013 74.4516 35.2213 74.4516 35.8213C74.4516 36.6613 74.1716 37.3613 73.6116 37.9213C73.0916 38.4413 72.4716 38.6213 71.7516 38.4613C71.2316 38.3413 70.7116 38.2813 70.1916 38.2813C69.2716 38.2813 68.5116 38.6013 67.9116 39.2413C67.3116 39.8813 66.9516 41.1813 66.8316 43.1413V49.1413C66.8316 49.8213 66.5716 50.4013 66.0516 50.8813C65.5716 51.3213 64.9716 51.5413 64.2516 51.5413ZM84.8316 51.7213C83.1116 51.7213 81.5316 51.3213 80.0916 50.5213C78.6516 49.7213 77.4916 48.6213 76.6116 47.2213C75.7716 45.7813 75.3516 44.1613 75.3516 42.3613C75.3516 40.5213 75.7716 38.9213 76.6116 37.5613C77.4916 36.1613 78.6516 35.0813 80.0916 34.3213C81.5316 33.5213 83.1116 33.1213 84.8316 33.1213C86.5916 33.1213 88.1716 33.5213 89.5716 34.3213C91.0116 35.0813 92.1516 36.1613 92.9916 37.5613C93.8316 38.9213 94.2516 40.5213 94.2516 42.3613C94.2516 44.1613 93.8316 45.7813 92.9916 47.2213C92.1516 48.6213 91.0116 49.7213 89.5716 50.5213C88.1716 51.3213 86.5916 51.7213 84.8316 51.7213ZM84.8316 46.8613C86.0716 46.8613 87.0716 46.4413 87.8316 45.6013C88.6316 44.7213 89.0316 43.6413 89.0316 42.3613C89.0316 41.0413 88.6316 39.9813 87.8316 39.1813C87.0716 38.3813 86.0716 37.9813 84.8316 37.9813C83.6316 37.9813 82.6116 38.3813 81.7716 39.1813C80.9716 39.9813 80.5716 41.0413 80.5716 42.3613C80.5716 43.6413 80.9716 44.7213 81.7716 45.6013C82.6116 46.4413 83.6316 46.8613 84.8316 46.8613ZM107.6 51.7213C105.84 51.7213 104.36 51.1813 103.16 50.1013V57.4213C103.16 58.1013 102.9 58.6613 102.38 59.1013C101.9 59.5813 101.3 59.8213 100.58 59.8213C99.8197 59.8213 99.1797 59.6013 98.6597 59.1613C98.1397 58.7213 97.8797 58.1613 97.8797 57.4813V35.7613C97.8797 35.1213 98.1197 34.5813 98.5997 34.1413C99.1197 33.6613 99.7797 33.4213 100.58 33.4213C101.18 33.4213 101.7 33.5813 102.14 33.9013C102.58 34.2213 102.88 34.6213 103.04 35.1013C104.4 33.7813 105.98 33.1213 107.78 33.1213C110.42 33.1213 112.52 33.9613 114.08 35.6413C115.68 37.2813 116.48 39.5213 116.48 42.3613C116.48 45.2013 115.68 47.4813 114.08 49.2013C112.48 50.8813 110.32 51.7213 107.6 51.7213ZM107.18 46.8613C108.42 46.8613 109.4 46.4413 110.12 45.6013C110.88 44.7213 111.26 43.6413 111.26 42.3613C111.26 41.0413 110.88 39.9813 110.12 39.1813C109.4 38.3813 108.42 37.9813 107.18 37.9813C105.98 37.9813 105 38.3813 104.24 39.1813C103.52 39.9813 103.16 41.0413 103.16 42.3613C103.16 43.6413 103.52 44.7213 104.24 45.6013C105 46.4413 105.98 46.8613 107.18 46.8613Z" fill="#55BE81"/>
</svg>
