<svg width="216" height="99" viewBox="0 0 216 99" fill="none" xmlns="http://www.w3.org/2000/svg">
<circle cx="14.2312" cy="14.4061" r="14.2312" fill="#D2E3C8" fill-opacity="0.68"/>
<circle cx="21.6561" cy="28.0184" r="8.04375" fill="#D2E3C8" fill-opacity="0.68"/>
<path d="M42 73.2C40.96 73.2 40 72.88 39.12 72.24C38.32 71.6 37.92 70.68 37.92 69.48V40.68C37.92 39.32 38.32 38.32 39.12 37.68C40 36.96 40.96 36.6 42 36.6C43.04 36.6 43.96 36.96 44.76 37.68C45.64 38.32 46.08 39.32 46.08 40.68V69.48C46.08 70.68 45.64 71.6 44.76 72.24C43.96 72.88 43.04 73.2 42 73.2ZM42.12 30C40.6 30 39.28 29.52 38.16 28.56C37.12 27.52 36.6 26.28 36.6 24.84C36.6 23.48 37.12 22.32 38.16 21.36C39.28 20.32 40.6 19.8 42.12 19.8C43.56 19.8 44.8 20.32 45.84 21.36C46.88 22.32 47.4 23.48 47.4 24.84C47.4 26.28 46.88 27.52 45.84 28.56C44.8 29.52 43.56 30 42.12 30ZM63.4069 72C61.7269 72 60.1269 71.44 58.6069 70.32C57.1669 69.2 56.4469 67.6 56.4469 65.52V30.24C56.4469 28.4 57.0469 26.92 58.2469 25.8C59.5269 24.6 61.0069 24 62.6869 24H73.4869C78.2869 24 82.4869 25 86.0869 27C89.7669 28.92 92.6069 31.68 94.6069 35.28C96.6869 38.88 97.7269 43.2 97.7269 48.24C97.7269 52.64 96.7669 56.64 94.8469 60.24C93.0069 63.84 90.4069 66.72 87.0469 68.88C83.7669 70.96 79.9669 72 75.6469 72H63.4069ZM68.3269 64.56H73.6069C78.8069 64.56 82.7669 63.2 85.4869 60.48C88.2069 57.68 89.5269 53.6 89.4469 48.24C89.3669 42.8 87.9669 38.64 85.2469 35.76C82.5269 32.88 78.6069 31.44 73.4869 31.44H68.4469C66.0469 31.44 64.8469 32.64 64.8469 35.04V60.96C64.8469 63.36 66.0069 64.56 68.3269 64.56ZM113.694 54.24V69.48C113.694 70.68 113.254 71.6 112.374 72.24C111.574 72.88 110.654 73.2 109.614 73.2C108.574 73.2 107.614 72.88 106.734 72.24C105.934 71.6 105.534 70.68 105.534 69.48V41.28C105.534 39.92 105.934 38.92 106.734 38.28C107.614 37.56 108.574 37.2 109.614 37.2C110.654 37.2 111.574 37.56 112.374 38.28C113.254 38.92 113.694 39.92 113.694 41.28V41.76C114.814 40.24 116.254 39 118.014 38.04C119.854 37.08 121.774 36.6 123.774 36.6C124.734 36.6 125.694 36.72 126.654 36.96C127.614 37.2 128.334 37.68 128.814 38.4C129.294 39.12 129.534 39.92 129.534 40.8C129.534 41.84 129.174 42.8 128.454 43.68C127.814 44.48 126.854 44.88 125.574 44.88C125.014 44.88 124.414 44.8 123.774 44.64C123.214 44.48 122.494 44.4 121.614 44.4C119.294 44.4 117.374 45.28 115.854 47.04C114.414 48.8 113.694 51.2 113.694 54.24ZM149.977 73.2C146.457 73.2 143.257 72.4 140.377 70.8C137.577 69.2 135.377 67 133.777 64.2C132.177 61.32 131.377 58.12 131.377 54.6C131.377 51.16 132.177 48.08 133.777 45.36C135.377 42.64 137.577 40.52 140.377 39C143.257 37.4 146.457 36.6 149.977 36.6C153.497 36.6 156.657 37.4 159.457 39C162.257 40.52 164.457 42.64 166.057 45.36C167.737 48.08 168.577 51.16 168.577 54.6C168.577 58.12 167.737 61.32 166.057 64.2C164.457 67 162.257 69.2 159.457 70.8C156.657 72.4 153.497 73.2 149.977 73.2ZM149.977 65.76C153.097 65.76 155.617 64.76 157.537 62.76C159.457 60.68 160.417 57.96 160.417 54.6C160.417 51.4 159.457 48.84 157.537 46.92C155.617 45 153.097 44.04 149.977 44.04C146.777 44.04 144.217 45 142.297 46.92C140.457 48.84 139.537 51.4 139.537 54.6C139.537 57.96 140.457 60.68 142.297 62.76C144.217 64.76 146.777 65.76 149.977 65.76ZM194.45 73.2C192.21 73.2 190.21 72.8 188.45 72C186.69 71.28 185.17 70.28 183.89 69V85.68C183.89 86.88 183.45 87.8 182.57 88.44C181.77 89.08 180.85 89.4 179.81 89.4C178.77 89.4 177.81 89.08 176.93 88.44C176.13 87.8 175.73 86.88 175.73 85.68V41.28C175.73 39.92 176.13 38.92 176.93 38.28C177.81 37.56 178.77 37.2 179.81 37.2C180.77 37.2 181.65 37.52 182.45 38.16C183.25 38.72 183.73 39.56 183.89 40.68C185.17 39.48 186.69 38.52 188.45 37.8C190.21 37 192.21 36.6 194.45 36.6C197.97 36.6 201.05 37.4 203.69 39C206.41 40.52 208.53 42.64 210.05 45.36C211.57 48.08 212.33 51.16 212.33 54.6C212.33 58.12 211.57 61.32 210.05 64.2C208.53 67 206.41 69.2 203.69 70.8C201.05 72.4 197.97 73.2 194.45 73.2ZM193.73 65.76C196.85 65.76 199.37 64.76 201.29 62.76C203.21 60.68 204.17 57.96 204.17 54.6C204.17 51.4 203.21 48.84 201.29 46.92C199.37 45 196.85 44.04 193.73 44.04C190.69 44.04 188.29 45 186.53 46.92C184.77 48.84 183.89 51.4 183.89 54.6C183.89 57.96 184.77 60.68 186.53 62.76C188.29 64.76 190.69 65.76 193.73 65.76Z" fill="white"/>
</svg>
